<?xml version="1.0" standalone="no"?>
<svg xmlns:xlink="http://www.w3.org/1999/xlink" id="wave" style="transform:rotate(0deg); transition: 0.3s" viewBox="0 0 1440 490" version="1.1" xmlns="http://www.w3.org/2000/svg"><defs><linearGradient id="sw-gradient-0" x1="0" x2="0" y1="1" y2="0"><stop stop-color="rgba(32, 104, 214, 1)" offset="0%"/><stop stop-color="rgba(193, 19, 169, 1)" offset="100%"/></linearGradient></defs><path style="transform:translate(0, 0px); opacity:1" fill="url(#sw-gradient-0)" d="M0,49L60,89.8C120,131,240,212,360,204.2C480,196,600,98,720,73.5C840,49,960,98,1080,122.5C1200,147,1320,147,1440,138.8C1560,131,1680,114,1800,89.8C1920,65,2040,33,2160,57.2C2280,82,2400,163,2520,236.8C2640,310,2760,376,2880,392C3000,408,3120,376,3240,318.5C3360,261,3480,180,3600,196C3720,212,3840,327,3960,375.7C4080,425,4200,408,4320,383.8C4440,359,4560,327,4680,334.8C4800,343,4920,392,5040,400.2C5160,408,5280,376,5400,351.2C5520,327,5640,310,5760,285.8C5880,261,6000,229,6120,179.7C6240,131,6360,65,6480,32.7C6600,0,6720,0,6840,0C6960,0,7080,0,7200,49C7320,98,7440,196,7560,245C7680,294,7800,294,7920,310.3C8040,327,8160,359,8280,334.8C8400,310,8520,229,8580,187.8L8640,147L8640,490L8580,490C8520,490,8400,490,8280,490C8160,490,8040,490,7920,490C7800,490,7680,490,7560,490C7440,490,7320,490,7200,490C7080,490,6960,490,6840,490C6720,490,6600,490,6480,490C6360,490,6240,490,6120,490C6000,490,5880,490,5760,490C5640,490,5520,490,5400,490C5280,490,5160,490,5040,490C4920,490,4800,490,4680,490C4560,490,4440,490,4320,490C4200,490,4080,490,3960,490C3840,490,3720,490,3600,490C3480,490,3360,490,3240,490C3120,490,3000,490,2880,490C2760,490,2640,490,2520,490C2400,490,2280,490,2160,490C2040,490,1920,490,1800,490C1680,490,1560,490,1440,490C1320,490,1200,490,1080,490C960,490,840,490,720,490C600,490,480,490,360,490C240,490,120,490,60,490L0,490Z"/><defs><linearGradient id="sw-gradient-1" x1="0" x2="0" y1="1" y2="0"><stop stop-color="rgba(26.311, 72.827, 143.893, 1)" offset="0%"/><stop stop-color="rgba(193, 19, 169, 1)" offset="100%"/></linearGradient></defs><path style="transform:translate(0, 50px); opacity:0.9" fill="url(#sw-gradient-1)" d="M0,49L60,73.5C120,98,240,147,360,196C480,245,600,294,720,318.5C840,343,960,343,1080,326.7C1200,310,1320,278,1440,269.5C1560,261,1680,278,1800,310.3C1920,343,2040,392,2160,351.2C2280,310,2400,180,2520,114.3C2640,49,2760,49,2880,40.8C3000,33,3120,16,3240,32.7C3360,49,3480,98,3600,155.2C3720,212,3840,278,3960,302.2C4080,327,4200,310,4320,294C4440,278,4560,261,4680,269.5C4800,278,4920,310,5040,318.5C5160,327,5280,310,5400,326.7C5520,343,5640,392,5760,400.2C5880,408,6000,376,6120,375.7C6240,376,6360,408,6480,351.2C6600,294,6720,147,6840,89.8C6960,33,7080,65,7200,138.8C7320,212,7440,327,7560,351.2C7680,376,7800,310,7920,269.5C8040,229,8160,212,8280,236.8C8400,261,8520,327,8580,359.3L8640,392L8640,490L8580,490C8520,490,8400,490,8280,490C8160,490,8040,490,7920,490C7800,490,7680,490,7560,490C7440,490,7320,490,7200,490C7080,490,6960,490,6840,490C6720,490,6600,490,6480,490C6360,490,6240,490,6120,490C6000,490,5880,490,5760,490C5640,490,5520,490,5400,490C5280,490,5160,490,5040,490C4920,490,4800,490,4680,490C4560,490,4440,490,4320,490C4200,490,4080,490,3960,490C3840,490,3720,490,3600,490C3480,490,3360,490,3240,490C3120,490,3000,490,2880,490C2760,490,2640,490,2520,490C2400,490,2280,490,2160,490C2040,490,1920,490,1800,490C1680,490,1560,490,1440,490C1320,490,1200,490,1080,490C960,490,840,490,720,490C600,490,480,490,360,490C240,490,120,490,60,490L0,490Z"/></svg>